<svg width="12" height="10" viewBox="0 0 12 10" fill="none" xmlns="http://www.w3.org/2000/svg">
<path d="M11.25 3.40625C11.25 6.6875 6.38484 9.34344 6.17766 9.45312C6.12305 9.4825 6.06201 9.49788 6 9.49788C5.93799 9.49788 5.87695 9.4825 5.82234 9.45312C5.61516 9.34344 0.75 6.6875 0.75 3.40625C0.750868 2.63573 1.05734 1.89702 1.60218 1.35218C2.14702 0.807341 2.88573 0.500868 3.65625 0.5C4.62422 0.5 5.47172 0.91625 6 1.61984C6.52828 0.91625 7.37578 0.5 8.34375 0.5C9.11427 0.500868 9.85298 0.807341 10.3978 1.35218C10.9427 1.89702 11.2491 2.63573 11.25 3.40625Z" fill="#ACACAC"/>
</svg>
