<svg width="12" height="10" viewBox="0 0 12 10" fill="none" xmlns="http://www.w3.org/2000/svg">
<path d="M8.34375 0.5C7.37578 0.5 6.52828 0.91625 6 1.61984C5.47172 0.91625 4.62422 0.5 3.65625 0.5C2.88573 0.500868 2.14702 0.807341 1.60218 1.35218C1.05734 1.89702 0.750868 2.63573 0.75 3.40625C0.75 6.6875 5.61516 9.34344 5.82234 9.45312C5.87695 9.4825 5.93799 9.49788 6 9.49788C6.06201 9.49788 6.12305 9.4825 6.17766 9.45312C6.38484 9.34344 11.25 6.6875 11.25 3.40625C11.2491 2.63573 10.9427 1.89702 10.3978 1.35218C9.85298 0.807341 9.11427 0.500868 8.34375 0.5ZM6 8.69375C5.14406 8.195 1.5 5.92297 1.5 3.40625C1.50074 2.83461 1.72816 2.28659 2.13237 1.88237C2.53659 1.47816 3.08461 1.25074 3.65625 1.25C4.56797 1.25 5.33344 1.73563 5.65312 2.51562C5.68138 2.5844 5.72944 2.64323 5.7912 2.68463C5.85297 2.72603 5.92564 2.74814 6 2.74814C6.07436 2.74814 6.14703 2.72603 6.2088 2.68463C6.27056 2.64323 6.31862 2.5844 6.34687 2.51562C6.66656 1.73422 7.43203 1.25 8.34375 1.25C8.91539 1.25074 9.46341 1.47816 9.86763 1.88237C10.2718 2.28659 10.4993 2.83461 10.5 3.40625C10.5 5.91922 6.855 8.19453 6 8.69375Z" fill="#ACACAC"/>
</svg>
